<svg xmlns="http://www.w3.org/2000/svg" version="1.1" xmlns:xlink="http://www.w3.org/1999/xlink" xmlns:svgjs="http://svgjs.dev/svgjs" width="1500" height="1500" viewBox="0 0 1500 1500"><rect width="1500" height="1500" fill="#ffffff"></rect><g transform="matrix(0.6666666666666666,0,0,0.6666666666666666,249.39393939393932,661.2500910421869)"><svg viewBox="0 0 396 70" data-background-color="#ffffff" preserveAspectRatio="xMidYMid meet" height="265" width="1500" xmlns="http://www.w3.org/2000/svg" xmlns:xlink="http://www.w3.org/1999/xlink"><g id="tight-bounds" transform="matrix(1,0,0,1,0.2400000000000091,0.16505826630327647)"><svg viewBox="0 0 395.52 69.66988346739342" height="69.66988346739342" width="395.52"><g><svg viewBox="0 0 490.6001484557746 86.41801975121291" height="69.66988346739342" width="395.52"><g transform="matrix(1,0,0,1,0,11.94344556619513)"><svg viewBox="0 0 395.52 62.53112861882265" height="62.53112861882265" width="395.52"><g id="textblocktransform"><svg viewBox="0 0 395.52 62.53112861882265" height="62.53112861882265" width="395.52" id="textblock"><g><svg viewBox="0 0 395.52 36.5945184754146" height="36.5945184754146" width="395.52"><g transform="matrix(1,0,0,1,0,0)"><svg width="395.52" viewBox="1.95 -30.57 331.46 31.060000000000002" height="36.5945184754146" data-palette-color="#1c4b82"><g class="wordmark-text-0" data-fill-palette-color="primary" id="text-0"><path d="M10.06-28.03L15.38-28.03Q19.73-28.03 21-24.12L21-24.12Q21.39-22.85 21.39-21.39L21.39-21.39Q21.39-15.04 15.72-14.4L15.72-14.4Q15.14-14.36 14.55-14.36L14.55-14.36 10.06-14.36 10.06-28.03ZM1.95 0L14.94 0Q14.94-1.07 14.16-1.22L14.16-1.22Q13.92-1.27 13.67-1.27L13.67-1.27 10.06-1.27 10.06-12.94 14.36-12.94Q22.36-12.94 24.95-17.48L24.95-17.48Q25.98-19.19 25.98-21.44L25.98-21.44Q25.98-26.27 21.78-28.22L21.78-28.22Q19.53-29.3 16.41-29.3L16.41-29.3 1.95-29.3 1.95-28.03 5.86-28.03 5.86-1.27 1.95-1.27 1.95 0ZM46.82 0L57.37 0Q57.37-1.07 56.59-1.22L56.59-1.22Q56.35-1.27 56.1-1.27L56.1-1.27 54.44-1.27 43.26-29.3 41.45-29.3 30.52-1.27 27.44-1.27 27.44 0 36.13 0Q36.13-1.07 35.35-1.22L35.35-1.22Q35.1-1.27 34.86-1.27L34.86-1.27 32.47-1.27 36.13-10.74 46.34-10.74 50-1.27 46.82-1.27 46.82 0ZM41.21-23.97L45.8-12.16 36.67-12.16 41.21-23.97ZM84.13-2.25L84.13-2.25Q84.13-0.2 84.71 0.1L84.71 0.1Q85.05 0.24 85.64 0.24L85.64 0.24 85.64-8.98 84.47-8.98Q81.98-0.93 74.51-0.88L74.51-0.88Q68.16-0.88 65.86-7.28L65.86-7.28Q64.74-10.4 64.74-14.65L64.74-14.65Q64.74-23.78 69.77-27.05L69.77-27.05Q71.97-28.42 74.65-28.42L74.65-28.42Q80.76-28.42 83.49-22.66L83.49-22.66Q83.98-21.63 84.32-20.56L84.32-20.56 85.49-20.56 85.35-29.54Q84.27-29.54 84.03-28.86L84.03-28.86Q83.88-28.27 83.88-26.95L83.88-26.95Q82.47-28.37 79.05-29.25L79.05-29.25Q76.8-29.79 74.46-29.79L74.46-29.79Q66.74-29.79 62.64-24.07L62.64-24.07Q59.81-20.02 59.81-14.75L59.81-14.75Q59.81-8.35 63.76-4L63.76-4Q67.96 0.49 74.7 0.49L74.7 0.49Q79.63 0.44 84.13-2.25ZM111.56-20.51L112.54-20.51 112.3-29.3 89.79-29.3 89.79-28.03 93.69-28.03 93.69-1.27 89.79-1.27 89.79 0 112.3 0 112.54-8.79 111.56-8.79 110.88-6.49Q109.66-2.34 107.27-1.51L107.27-1.51Q106.54-1.27 105.71-1.27L105.71-1.27 97.89-1.27 97.89-14.4 107.95-14.4 107.95-15.82 97.89-15.82 97.89-28.03 105.71-28.03Q109.22-28.03 110.73-23.29L110.73-23.29Q110.83-23 110.88-22.8L110.88-22.8 111.56-20.51Z" fill="#1c4b82" data-fill-palette-color="primary"></path><path d="M124.01 0L135.98 0Q135.98-1.07 135.19-1.22L135.19-1.22Q134.95-1.27 134.71-1.27L134.71-1.27 132.12-1.27 132.12-28.03 135.98-28.03 135.98-29.3 124.01-29.3 124.01-28.03 127.92-28.03 127.92-1.27 124.01-1.27 124.01 0ZM145.1 0L158.53 0Q158.53-1.07 157.75-1.22L157.75-1.22Q157.51-1.27 157.26-1.27L157.26-1.27 153.94-1.27 153.94-28.03 156.77-28.03Q160.73-28.03 162.05-23.24L162.05-23.24Q162.05-23.05 162.1-22.95L162.1-22.95 162.88-19.68 164.24-19.68 164-29.3 139.88-29.3 139.63-19.68 141-19.68 141.78-22.95Q143.35-27.73 147.11-28.03L147.11-28.03 149.74-28.03 149.74-1.27 145.1-1.27 145.1 0Z" fill="#1c4b82" data-fill-palette-color="primary"></path><path d="M183.04-0.83L183.04-0.83Q186.41-0.83 187.58-2.88L187.58-2.88Q188.02-3.61 188.02-4.49L188.02-4.49Q188.02-6.54 185.04-8.01L185.04-8.01Q184.4-8.35 182.94-8.98L182.94-8.98Q178.93-10.64 177.62-12.11L177.62-12.11Q176.2-13.72 176.2-15.87L176.2-15.87Q176.2-19.24 179.91-20.61L179.91-20.61Q181.62-21.24 183.62-21.24L183.62-21.24Q186.84-21.24 189.19-19.87L189.19-19.87Q189.19-21.29 189.87-21.48L189.87-21.48Q190.17-21.53 190.51-21.53L190.51-21.53 190.51-15.43 189.24-15.43Q189.14-19.92 184.26-19.97L184.26-19.97Q180.59-19.97 179.72-17.82L179.72-17.82Q179.47-17.24 179.47-16.6L179.47-16.6Q179.47-14.5 182.5-13.04L182.5-13.04Q183.18-12.7 184.65-12.11L184.65-12.11Q188.6-10.5 189.92-9.03L189.92-9.03Q191.34-7.47 191.34-5.32L191.34-5.32Q191.34-1.37 187.14-0.05L187.14-0.05Q185.53 0.49 183.62 0.49L183.62 0.49Q180.11 0.44 177.52-1.27L177.52-1.27Q177.52 0 176.88 0.2L176.88 0.2Q176.59 0.24 176.2 0.24L176.2 0.24 176.2-7.18 177.57-7.18Q177.67-0.88 183.04-0.83ZM205.45-20.02L205.45-20.02Q208.86-20.02 209.99-17.14L209.99-17.14Q210.38-16.21 210.38-15.14L210.38-15.14Q210.38-12.7 208.03-12.16L208.03-12.16Q206.81-11.91 204.57-11.96L204.57-11.96 199.39-12.11Q199.64-17.72 203.05-19.43L203.05-19.43Q204.18-20.02 205.45-20.02ZM213.94-4.69L213.94-4.69 212.72-5.13Q211.01-1.42 207.2-0.93L207.2-0.93Q206.72-0.88 206.28-0.88L206.28-0.88Q201.15-0.88 199.83-6.98L199.83-6.98Q199.44-8.69 199.39-10.74L199.39-10.74 205.25-10.64Q211.21-10.55 212.92-11.77L212.92-11.77Q214.24-12.74 214.24-14.55L214.24-14.55Q214.24-17.87 210.87-19.82L210.87-19.82Q208.47-21.24 205.35-21.24L205.35-21.24Q199.24-21.24 196.61-16.16L196.61-16.16Q195.24-13.53 195.24-10.21L195.24-10.21Q195.24-4.15 199.59-1.22L199.59-1.22Q202.17 0.49 205.49 0.49L205.49 0.49Q210.77 0.49 213.26-3.32L213.26-3.32Q213.65-4 213.94-4.69ZM228.34-1.22L228.34-1.22 224.83-1.22 224.83-10.94Q224.83-15.38 227.56-18.07L227.56-18.07Q228.64-19.09 229.37-19.14L229.37-19.14Q230.2-19.14 230.88-17.92L230.88-17.92Q231.66-16.55 232.35-16.36L232.35-16.36Q232.64-16.26 232.93-16.26L232.93-16.26Q234.4-16.26 234.79-17.68L234.79-17.68Q234.89-17.97 234.89-18.26L234.89-18.26Q234.89-20.46 232.64-20.95L232.64-20.95Q232.15-21.04 231.71-21.04L231.71-21.04Q228.78-21.04 226.49-18.55L226.49-18.55Q225.41-17.38 224.78-15.92L224.78-15.92 224.58-20.75 217.5-20.75 217.5-19.53 221.17-19.53 221.17-4.15Q221.17-1.9 219.9-1.46L219.9-1.46Q219.16-1.22 217.5-1.22L217.5-1.22 217.5 0 229.56 0Q229.56-1.07 228.83-1.17L228.83-1.17Q228.64-1.22 228.34-1.22ZM241.33-19.53L244.75-19.53 244.75-20.75 235.27-20.75 235.27-19.53 237.47-19.53 243.43-3.17Q244.41-0.44 245.58 0L245.58 0Q246.16 0.24 247.04 0.24L247.04 0.24 247.68 0.24 254.56-17.82Q255.15-19.34 255.98-19.48L255.98-19.48Q256.22-19.53 256.42-19.53L256.42-19.53Q257.49-19.53 257.59-20.26L257.59-20.26Q257.64-20.51 257.64-20.75L257.64-20.75 250.12-20.75 250.12-19.53 253.78-19.53 247.58-2.88 241.33-19.53ZM269.26-1.22L269.26-1.22 266.82-1.22 266.82-20.75 259.25-20.75 259.25-19.53 263.15-19.53 263.15-4.15Q263.15-1.9 261.64-1.42L261.64-1.42Q260.91-1.22 259.25-1.22L259.25-1.22 259.25 0 270.48 0Q270.48-1.07 269.75-1.17L269.75-1.17Q269.5-1.22 269.26-1.22ZM267.4-27.88L267.4-27.88Q267.4-29.59 265.89-30.32L265.89-30.32Q265.3-30.57 264.76-30.57L264.76-30.57Q263.06-30.57 262.32-29L262.32-29Q262.08-28.47 262.08-27.88L262.08-27.88Q262.08-26.07 263.69-25.39L263.69-25.39Q264.23-25.2 264.76-25.2L264.76-25.2Q266.47-25.2 267.16-26.76L267.16-26.76Q267.4-27.29 267.4-27.88ZM273.89-10.16L273.89-10.16Q273.89-4.25 278.24-1.32L278.24-1.32Q280.92 0.49 284.34 0.49L284.34 0.49Q289.42 0.49 292.01-3.08L292.01-3.08Q292.59-3.91 292.94-4.74L292.94-4.74 291.67-5.18Q289.86-1.32 285.71-0.93L285.71-0.93Q285.32-0.88 284.93-0.88L284.93-0.88Q281.46-0.88 279.51-4.35L279.51-4.35Q278.04-6.98 278.04-10.6L278.04-10.6Q278.04-16.99 281.41-19.14L281.41-19.14Q282.83-20.02 284.54-20.02L284.54-20.02Q287.17-20.02 287.71-17.97L287.71-17.97Q287.81-17.58 287.96-16.75L287.96-16.75Q288.25-14.79 289.03-14.31L289.03-14.31Q289.52-14.06 290.1-14.01L290.1-14.01Q291.76-13.92 292.2-15.38L292.2-15.38Q292.3-15.72 292.3-16.02L292.3-16.02Q292.3-18.51 289.13-20.12L289.13-20.12Q286.88-21.24 284.24-21.24L284.24-21.24Q277.7-21.24 275.11-15.92L275.11-15.92Q273.89-13.38 273.89-10.16ZM305.34-20.02L305.34-20.02Q308.75-20.02 309.88-17.14L309.88-17.14Q310.27-16.21 310.27-15.14L310.27-15.14Q310.27-12.7 307.92-12.16L307.92-12.16Q306.7-11.91 304.46-11.96L304.46-11.96 299.28-12.11Q299.53-17.72 302.94-19.43L302.94-19.43Q304.07-20.02 305.34-20.02ZM313.83-4.69L313.83-4.69 312.61-5.13Q310.9-1.42 307.09-0.93L307.09-0.93Q306.61-0.88 306.17-0.88L306.17-0.88Q301.04-0.88 299.72-6.98L299.72-6.98Q299.33-8.69 299.28-10.74L299.28-10.74 305.14-10.64Q311.1-10.55 312.81-11.77L312.81-11.77Q314.12-12.74 314.12-14.55L314.12-14.55Q314.12-17.87 310.76-19.82L310.76-19.82Q308.36-21.24 305.24-21.24L305.24-21.24Q299.13-21.24 296.5-16.16L296.5-16.16Q295.13-13.53 295.13-10.21L295.13-10.21Q295.13-4.15 299.48-1.22L299.48-1.22Q302.06 0.49 305.38 0.49L305.38 0.49Q310.66 0.49 313.15-3.32L313.15-3.32Q313.54-4 313.83-4.69ZM325.11-0.83L325.11-0.83Q328.48-0.83 329.65-2.88L329.65-2.88Q330.09-3.61 330.09-4.49L330.09-4.49Q330.09-6.54 327.11-8.01L327.11-8.01Q326.48-8.35 325.01-8.98L325.01-8.98Q321.01-10.64 319.69-12.11L319.69-12.11Q318.27-13.72 318.27-15.87L318.27-15.87Q318.27-19.24 321.98-20.61L321.98-20.61Q323.69-21.24 325.69-21.24L325.69-21.24Q328.92-21.24 331.26-19.87L331.26-19.87Q331.26-21.29 331.94-21.48L331.94-21.48Q332.24-21.53 332.58-21.53L332.58-21.53 332.58-15.43 331.31-15.43Q331.21-19.92 326.33-19.97L326.33-19.97Q322.67-19.97 321.79-17.82L321.79-17.82Q321.54-17.24 321.54-16.6L321.54-16.6Q321.54-14.5 324.57-13.04L324.57-13.04Q325.26-12.7 326.72-12.11L326.72-12.11Q330.68-10.5 331.99-9.03L331.99-9.03Q333.41-7.47 333.41-5.32L333.41-5.32Q333.41-1.37 329.21-0.05L329.21-0.05Q327.6 0.49 325.69 0.49L325.69 0.49Q322.18 0.44 319.59-1.27L319.59-1.27Q319.59 0 318.96 0.2L318.96 0.2Q318.66 0.24 318.27 0.24L318.27 0.24 318.27-7.18 319.64-7.18Q319.74-0.88 325.11-0.83Z" fill="#1c4b82" data-fill-palette-color="primary"></path></g></svg></g></svg></g><g transform="matrix(1,0,0,1,163.310208,45.23360601901658)"><svg viewBox="0 0 232.209792 17.297522599806065" height="17.297522599806065" width="232.209792"><g transform="matrix(1,0,0,1,0,0)"><svg width="232.209792" viewBox="-0.1 -39.5 704.9200000000001 52.510000000000005" height="17.297522599806065" data-palette-color="#1c4b82"><path d="M22.97-28.2L28.69-28.2 18.43-3.39Q16.67 0.85 14.51 5.02 12.35 9.18 9.84 13.01L9.84 13.01 6.62 11.06Q7.23 9.96 8.06 8.52 8.89 7.08 9.69 5.54 10.5 4 11.18 2.5 11.87 1 12.23-0.24L12.23-0.24-0.1-28.2 8.15-28.2 16.53-9.13 22.97-28.2ZM61.25-14.16L61.25-14.16Q61.25-11.96 60.67-10.03 60.08-8.11 59.04-6.47 58.01-4.83 56.54-3.53 55.08-2.22 53.33-1.32 51.58-0.42 49.59 0.07 47.6 0.56 45.51 0.56L45.51 0.56Q43.41 0.56 41.43 0.07 39.45-0.42 37.71-1.32 35.96-2.22 34.49-3.53 33.03-4.83 31.99-6.47 30.95-8.11 30.37-10.05 29.78-11.99 29.78-14.16L29.78-14.16Q29.78-16.33 30.37-18.27 30.95-20.21 31.99-21.85 33.03-23.49 34.49-24.79 35.96-26.1 37.71-27 39.45-27.91 41.43-28.39 43.41-28.88 45.51-28.88L45.51-28.88Q47.6-28.88 49.59-28.39 51.58-27.91 53.33-27 55.08-26.1 56.54-24.79 58.01-23.49 59.04-21.85 60.08-20.21 60.67-18.27 61.25-16.33 61.25-14.16ZM52.85-14.16L52.85-14.16Q52.85-15.33 52.72-16.64 52.59-17.94 52.27-19.2 51.95-20.46 51.4-21.62 50.85-22.78 50.05-23.65 49.24-24.51 48.12-25.04 46.99-25.56 45.51-25.56L45.51-25.56Q44.09-25.56 42.99-25.02 41.89-24.49 41.07-23.6 40.26-22.71 39.71-21.53 39.16-20.36 38.82-19.1 38.47-17.85 38.33-16.56 38.18-15.28 38.18-14.16L38.18-14.16Q38.18-13.04 38.33-11.76 38.47-10.47 38.82-9.2 39.16-7.93 39.71-6.77 40.26-5.62 41.07-4.72 41.89-3.83 42.99-3.3 44.09-2.76 45.51-2.76L45.51-2.76Q46.97-2.76 48.09-3.28 49.22-3.81 50.03-4.69 50.85-5.57 51.39-6.71 51.93-7.86 52.26-9.13 52.59-10.4 52.72-11.69 52.85-12.99 52.85-14.16ZM65.01-12.06L65.01-12.06Q65.01-13.99 65.34-16.06 65.67-18.14 66.29-20.21 66.91-22.29 67.79-24.32 68.67-26.34 69.77-28.2L69.77-28.2 75.8-28.2Q75.19-26.37 74.71-24.38 74.24-22.39 73.91-20.4 73.58-18.41 73.4-16.5 73.21-14.6 73.21-12.96L73.21-12.96Q73.21-12.01 73.3-10.93 73.38-9.84 73.6-8.75 73.82-7.67 74.23-6.67 74.63-5.66 75.26-4.9 75.9-4.13 76.81-3.67 77.73-3.22 78.97-3.22L78.97-3.22Q80.2-3.22 81.16-3.77 82.12-4.32 82.86-5.21 83.59-6.1 84.1-7.25 84.61-8.4 84.94-9.61 85.27-10.82 85.43-11.98 85.59-13.13 85.59-14.06L85.59-14.06 85.59-28.2 93.84-28.2 93.84 0 90.67 0 86.88-6.57Q86.18-4.93 85.16-3.6 84.15-2.27 82.86-1.32 81.56-0.37 79.99 0.15 78.41 0.66 76.58 0.66L76.58 0.66Q73.65 0.66 71.48-0.29 69.31-1.25 67.87-2.93 66.43-4.61 65.72-6.95 65.01-9.28 65.01-12.06ZM124.7-25.71L124.7-25.71 120.06-18.02Q119.77-18.99 119.3-20.21 118.84-21.44 118.16-22.5 117.47-23.56 116.52-24.28 115.57-25 114.32-25L114.32-25Q113.18-25 112.33-24.41 111.49-23.83 110.91-22.89 110.32-21.95 109.94-20.76 109.56-19.58 109.36-18.37 109.15-17.16 109.07-16.05 109-14.94 109-14.14L109-14.14 109 0 100.72 0 100.72-28.2 103.9-28.2 107.24-21.63Q107.93-23.22 108.81-24.55 109.68-25.88 110.83-26.84 111.98-27.81 113.43-28.34 114.89-28.88 116.72-28.88L116.72-28.88Q117.67-28.88 118.84-28.72 120.01-28.56 121.14-28.19 122.26-27.81 123.21-27.2 124.16-26.59 124.7-25.71ZM167.91-28.2L156.8 0 149.38 0 139.12-28.2 147.38-28.2 154.89-5.74 162.19-28.2 167.91-28.2ZM180.06-35.01L180.06-35.01Q180.06-34.08 179.71-33.25 179.36-32.42 178.74-31.81 178.13-31.2 177.3-30.85 176.47-30.49 175.55-30.49L175.55-30.49Q174.62-30.49 173.8-30.85 172.98-31.2 172.37-31.81 171.76-32.42 171.41-33.25 171.05-34.08 171.05-35.01L171.05-35.01Q171.05-35.94 171.41-36.76 171.76-37.57 172.37-38.18 172.98-38.79 173.8-39.15 174.62-39.5 175.55-39.5L175.55-39.5Q176.47-39.5 177.3-39.15 178.13-38.79 178.74-38.18 179.36-37.57 179.71-36.76 180.06-35.94 180.06-35.01ZM179.7-28.17L179.7 0 171.42 0 171.42-28.17 179.7-28.17ZM210.87-9.01L210.87-9.01Q210.87-7.15 210.33-5.71 209.8-4.27 208.87-3.21 207.94-2.15 206.67-1.43 205.4-0.71 203.95-0.27 202.5 0.17 200.91 0.37 199.32 0.56 197.76 0.56L197.76 0.56Q195.66 0.56 194.05 0.29 192.44 0.02 190.97-0.57 189.51-1.17 188.06-2.12 186.6-3.08 184.82-4.44L184.82-4.44 189.63-8.37Q190.29-7.13 191.38-6.12 192.46-5.1 193.63-4.37 194.81-3.64 195.91-3.25 197-2.86 197.69-2.86L197.69-2.86Q198.25-2.86 198.96-2.89 199.67-2.93 200.4-3.04 201.13-3.15 201.84-3.37 202.55-3.59 203.1-3.97 203.64-4.35 203.97-4.92 204.3-5.49 204.3-6.3L204.3-6.3Q204.3-7.13 203.88-7.75 203.45-8.37 202.77-8.84 202.08-9.3 201.2-9.62 200.32-9.94 199.43-10.18 198.54-10.42 197.71-10.61 196.88-10.79 196.27-10.96L196.27-10.96Q195.15-11.28 193.9-11.61 192.66-11.94 191.44-12.37 190.22-12.79 189.11-13.38 188-13.96 187.15-14.78 186.31-15.6 185.81-16.71 185.31-17.82 185.31-19.31L185.31-19.31Q185.31-22.05 186.4-23.89 187.48-25.73 189.26-26.84 191.05-27.95 193.32-28.42 195.59-28.88 197.93-28.88L197.93-28.88Q199.54-28.88 201.33-28.55 203.11-28.22 204.79-27.58 206.48-26.93 207.94-26 209.41-25.07 210.38-23.88L210.38-23.88 205.57-19.92Q205.04-21.39 204.17-22.44 203.3-23.49 202.29-24.16 201.28-24.83 200.21-25.15 199.15-25.46 198.25-25.46L198.25-25.46Q197.37-25.46 196.27-25.39 195.17-25.32 194.21-24.98 193.24-24.63 192.57-23.94 191.9-23.24 191.9-22.02L191.9-22.02Q191.9-21.14 192.3-20.52 192.71-19.9 193.37-19.45 194.03-18.99 194.87-18.69 195.71-18.38 196.59-18.15 197.47-17.92 198.3-17.75 199.13-17.58 199.79-17.38L199.79-17.38Q200.91-17.07 202.17-16.74 203.42-16.41 204.65-15.98 205.87-15.55 207-14.98 208.14-14.4 208.99-13.57 209.85-12.74 210.36-11.63 210.87-10.52 210.87-9.01ZM240.34-9.01L240.34-9.01Q240.34-7.15 239.8-5.71 239.26-4.27 238.33-3.21 237.41-2.15 236.14-1.43 234.87-0.71 233.42-0.27 231.96 0.17 230.38 0.37 228.79 0.56 227.23 0.56L227.23 0.56Q225.13 0.56 223.52 0.29 221.9 0.02 220.44-0.57 218.97-1.17 217.52-2.12 216.07-3.08 214.29-4.44L214.29-4.44 219.1-8.37Q219.76-7.13 220.84-6.12 221.93-5.1 223.1-4.37 224.27-3.64 225.37-3.25 226.47-2.86 227.15-2.86L227.15-2.86Q227.71-2.86 228.42-2.89 229.13-2.93 229.86-3.04 230.6-3.15 231.3-3.37 232.01-3.59 232.56-3.97 233.11-4.35 233.44-4.92 233.77-5.49 233.77-6.3L233.77-6.3Q233.77-7.13 233.34-7.75 232.91-8.37 232.23-8.84 231.55-9.3 230.67-9.62 229.79-9.94 228.9-10.18 228.01-10.42 227.18-10.61 226.35-10.79 225.74-10.96L225.74-10.96Q224.61-11.28 223.37-11.61 222.12-11.94 220.9-12.37 219.68-12.79 218.57-13.38 217.46-13.96 216.62-14.78 215.78-15.6 215.28-16.71 214.77-17.82 214.77-19.31L214.77-19.31Q214.77-22.05 215.86-23.89 216.95-25.73 218.73-26.84 220.51-27.95 222.78-28.42 225.05-28.88 227.4-28.88L227.4-28.88Q229.01-28.88 230.79-28.55 232.57-28.22 234.26-27.58 235.94-26.93 237.41-26 238.87-25.07 239.85-23.88L239.85-23.88 235.04-19.92Q234.5-21.39 233.63-22.44 232.77-23.49 231.75-24.16 230.74-24.83 229.68-25.15 228.62-25.46 227.71-25.46L227.71-25.46Q226.84-25.46 225.74-25.39 224.64-25.32 223.67-24.98 222.71-24.63 222.04-23.94 221.37-23.24 221.37-22.02L221.37-22.02Q221.37-21.14 221.77-20.52 222.17-19.9 222.83-19.45 223.49-18.99 224.33-18.69 225.18-18.38 226.05-18.15 226.93-17.92 227.76-17.75 228.59-17.58 229.25-17.38L229.25-17.38Q230.38-17.07 231.63-16.74 232.89-16.41 234.11-15.98 235.33-15.55 236.47-14.98 237.6-14.4 238.46-13.57 239.31-12.74 239.82-11.63 240.34-10.52 240.34-9.01ZM254.2-35.01L254.2-35.01Q254.2-34.08 253.85-33.25 253.49-32.42 252.88-31.81 252.27-31.2 251.44-30.85 250.61-30.49 249.68-30.49L249.68-30.49Q248.76-30.49 247.94-30.85 247.12-31.2 246.51-31.81 245.9-32.42 245.55-33.25 245.19-34.08 245.19-35.01L245.19-35.01Q245.19-35.94 245.55-36.76 245.9-37.57 246.51-38.18 247.12-38.79 247.94-39.15 248.76-39.5 249.68-39.5L249.68-39.5Q250.61-39.5 251.44-39.15 252.27-38.79 252.88-38.18 253.49-37.57 253.85-36.76 254.2-35.94 254.2-35.01ZM253.83-28.17L253.83 0 245.56 0 245.56-28.17 253.83-28.17ZM290.53-14.16L290.53-14.16Q290.53-11.96 289.94-10.03 289.35-8.11 288.32-6.47 287.28-4.83 285.81-3.53 284.35-2.22 282.6-1.32 280.86-0.42 278.87 0.07 276.88 0.56 274.78 0.56L274.78 0.56Q272.68 0.56 270.7 0.07 268.73-0.42 266.98-1.32 265.23-2.22 263.77-3.53 262.3-4.83 261.27-6.47 260.23-8.11 259.64-10.05 259.06-11.99 259.06-14.16L259.06-14.16Q259.06-16.33 259.64-18.27 260.23-20.21 261.27-21.85 262.3-23.49 263.77-24.79 265.23-26.1 266.98-27 268.73-27.91 270.7-28.39 272.68-28.88 274.78-28.88L274.78-28.88Q276.88-28.88 278.87-28.39 280.86-27.91 282.6-27 284.35-26.1 285.81-24.79 287.28-23.49 288.32-21.85 289.35-20.21 289.94-18.27 290.53-16.33 290.53-14.16ZM282.13-14.16L282.13-14.16Q282.13-15.33 281.99-16.64 281.86-17.94 281.54-19.2 281.23-20.46 280.68-21.62 280.13-22.78 279.32-23.65 278.52-24.51 277.39-25.04 276.27-25.56 274.78-25.56L274.78-25.56Q273.36-25.56 272.27-25.02 271.17-24.49 270.35-23.6 269.53-22.71 268.98-21.53 268.43-20.36 268.09-19.1 267.75-17.85 267.6-16.56 267.46-15.28 267.46-14.16L267.46-14.16Q267.46-13.04 267.6-11.76 267.75-10.47 268.09-9.2 268.43-7.93 268.98-6.77 269.53-5.62 270.35-4.72 271.17-3.83 272.27-3.3 273.36-2.76 274.78-2.76L274.78-2.76Q276.24-2.76 277.37-3.28 278.49-3.81 279.31-4.69 280.13-5.57 280.66-6.71 281.2-7.86 281.53-9.13 281.86-10.4 281.99-11.69 282.13-12.99 282.13-14.16ZM324.56-16.16L324.56-16.16Q324.56-13.31 323.86-10.21 323.17-7.1 321.92-4.13 320.68-1.15 318.94 1.48 317.21 4.1 315.13 6.01L315.13 6.01 312.03 4.32Q312.69 3.1 313.28 1.59 313.86 0.07 314.34-1.62 314.82-3.32 315.19-5.13 315.57-6.93 315.83-8.7 316.09-10.47 316.22-12.15 316.35-13.82 316.35-15.26L316.35-15.26Q316.35-16.21 316.28-17.3 316.21-18.38 315.98-19.47 315.74-20.56 315.35-21.56 314.96-22.56 314.32-23.32 313.67-24.07 312.75-24.54 311.84-25 310.59-25L310.59-25Q309.37-25 308.42-24.45 307.47-23.9 306.74-23.01 306-22.12 305.48-20.97 304.95-19.82 304.62-18.62 304.29-17.41 304.15-16.24 304-15.06 304-14.14L304-14.14 304 0 295.72 0 295.72-28.2 298.9-28.2 302.68-21.63Q303.37-23.27 304.39-24.61 305.42-25.95 306.71-26.9 308-27.86 309.58-28.37 311.15-28.88 312.99-28.88L312.99-28.88Q315.91-28.88 318.09-27.93 320.26-26.98 321.7-25.28 323.14-23.58 323.85-21.25 324.56-18.92 324.56-16.16ZM373.94-14.16L373.94-14.16Q373.94-11.96 373.36-10.03 372.77-8.11 371.73-6.47 370.7-4.83 369.23-3.53 367.77-2.22 366.02-1.32 364.27-0.42 362.28 0.07 360.29 0.56 358.2 0.56L358.2 0.56Q356.1 0.56 354.12 0.07 352.14-0.42 350.39-1.32 348.65-2.22 347.18-3.53 345.72-4.83 344.68-6.47 343.64-8.11 343.06-10.05 342.47-11.99 342.47-14.16L342.47-14.16Q342.47-16.33 343.06-18.27 343.64-20.21 344.68-21.85 345.72-23.49 347.18-24.79 348.65-26.1 350.39-27 352.14-27.91 354.12-28.39 356.1-28.88 358.2-28.88L358.2-28.88Q360.29-28.88 362.28-28.39 364.27-27.91 366.02-27 367.77-26.1 369.23-24.79 370.7-23.49 371.73-21.85 372.77-20.21 373.36-18.27 373.94-16.33 373.94-14.16ZM365.54-14.16L365.54-14.16Q365.54-15.33 365.41-16.64 365.28-17.94 364.96-19.2 364.64-20.46 364.09-21.62 363.54-22.78 362.74-23.65 361.93-24.51 360.81-25.04 359.68-25.56 358.2-25.56L358.2-25.56Q356.78-25.56 355.68-25.02 354.58-24.49 353.76-23.6 352.95-22.71 352.4-21.53 351.85-20.36 351.51-19.1 351.16-17.85 351.02-16.56 350.87-15.28 350.87-14.16L350.87-14.16Q350.87-13.04 351.02-11.76 351.16-10.47 351.51-9.2 351.85-7.93 352.4-6.77 352.95-5.62 353.76-4.72 354.58-3.83 355.68-3.3 356.78-2.76 358.2-2.76L358.2-2.76Q359.66-2.76 360.78-3.28 361.91-3.81 362.72-4.69 363.54-5.57 364.08-6.71 364.62-7.86 364.95-9.13 365.28-10.4 365.41-11.69 365.54-12.99 365.54-14.16ZM377.7-12.06L377.7-12.06Q377.7-13.99 378.03-16.06 378.36-18.14 378.98-20.21 379.6-22.29 380.48-24.32 381.36-26.34 382.46-28.2L382.46-28.2 388.49-28.2Q387.88-26.37 387.4-24.38 386.93-22.39 386.6-20.4 386.27-18.41 386.09-16.5 385.9-14.6 385.9-12.96L385.9-12.96Q385.9-12.01 385.99-10.93 386.07-9.84 386.29-8.75 386.51-7.67 386.92-6.67 387.32-5.66 387.95-4.9 388.59-4.13 389.5-3.67 390.42-3.22 391.66-3.22L391.66-3.22Q392.88-3.22 393.85-3.77 394.81-4.32 395.55-5.21 396.28-6.1 396.79-7.25 397.3-8.4 397.63-9.61 397.96-10.82 398.12-11.98 398.28-13.13 398.28-14.06L398.28-14.06 398.28-28.2 406.53-28.2 406.53 0 403.36 0 399.57-6.57Q398.87-4.93 397.85-3.6 396.84-2.27 395.55-1.32 394.25-0.37 392.68 0.15 391.1 0.66 389.27 0.66L389.27 0.66Q386.34 0.66 384.17-0.29 382-1.25 380.56-2.93 379.12-4.61 378.41-6.95 377.7-9.28 377.7-12.06ZM437.39-25.71L437.39-25.71 432.75-18.02Q432.46-18.99 431.99-20.21 431.53-21.44 430.85-22.5 430.16-23.56 429.21-24.28 428.26-25 427.01-25L427.01-25Q425.87-25 425.02-24.41 424.18-23.83 423.6-22.89 423.01-21.95 422.63-20.76 422.25-19.58 422.05-18.37 421.84-17.16 421.76-16.05 421.69-14.94 421.69-14.14L421.69-14.14 421.69 0 413.41 0 413.41-28.2 416.59-28.2 419.93-21.63Q420.62-23.22 421.5-24.55 422.37-25.88 423.52-26.84 424.67-27.81 426.12-28.34 427.57-28.88 429.41-28.88L429.41-28.88Q430.36-28.88 431.53-28.72 432.7-28.56 433.82-28.19 434.95-27.81 435.9-27.2 436.85-26.59 437.39-25.71ZM461.77-13.38L461.77-13.38Q463.29-13.04 464.8-12.84 466.31-12.65 467.85-12.65L467.85-12.65Q469.46-12.65 470.84-12.95 472.22-13.26 473.24-13.98 474.25-14.7 474.84-15.89 475.42-17.09 475.42-18.87L475.42-18.87Q475.42-20.31 475.03-21.51 474.64-22.71 473.87-23.56 473.1-24.41 471.98-24.89 470.86-25.37 469.37-25.37L469.37-25.37Q467.98-25.37 466.86-24.85 465.75-24.34 464.91-23.47 464.07-22.61 463.47-21.46 462.87-20.31 462.48-19.07 462.09-17.82 461.92-16.55 461.75-15.28 461.75-14.16L461.75-14.16Q461.75-13.96 461.75-13.77 461.75-13.57 461.77-13.38ZM482.11-18.95L482.11-18.95Q482.11-17.21 481.55-15.86 480.99-14.5 480.02-13.48 479.06-12.45 477.79-11.74 476.52-11.04 475.08-10.58 473.64-10.13 472.11-9.94 470.59-9.74 469.15-9.74L469.15-9.74Q467.32-9.74 465.53-10 463.75-10.25 462.02-10.82L462.02-10.82Q462.29-9.2 462.87-7.75 463.46-6.3 464.44-5.21 465.41-4.13 466.84-3.49 468.27-2.86 470.22-2.86L470.22-2.86Q471.52-2.86 472.69-3.25 473.86-3.64 474.84-4.35 475.81-5.05 476.56-6.03 477.3-7.01 477.77-8.2L477.77-8.2 481.33-6.88Q480.52-4.96 479.12-3.55 477.72-2.15 475.95-1.23 474.18-0.32 472.19 0.12 470.2 0.56 468.24 0.56L468.24 0.56Q465.02 0.56 462.29-0.52 459.55-1.61 457.57-3.56 455.6-5.52 454.47-8.23 453.35-10.94 453.35-14.16L453.35-14.16Q453.35-17.38 454.47-20.09 455.6-22.8 457.57-24.76 459.55-26.71 462.29-27.8 465.02-28.88 468.24-28.88L468.24-28.88Q469.81-28.88 471.44-28.66 473.08-28.44 474.62-27.97 476.15-27.49 477.52-26.73 478.89-25.98 479.9-24.87 480.91-23.75 481.51-22.29 482.11-20.83 482.11-18.95ZM500.42-15.55L511.26 0 503.01 0 496.1-9.89 489.04 0 483.33 0 493.95-12.99 483.33-28.2 491.58-28.2 498.27-18.63 505.55-28.2 511.26-28.2 500.42-15.55ZM545.05-14.16L545.05-14.16Q545.05-11.08 544.12-8.4 543.19-5.71 541.43-3.72 539.67-1.73 537.14-0.59 534.6 0.56 531.37 0.56L531.37 0.56Q528.91 0.56 526.84-0.4 524.78-1.37 523.32-3.37L523.32-3.37 523.32 13.01 515.06 13.01 515.06-28.2 518.24-28.2 521.9-22.07Q522.44-23.61 523.38-24.87 524.32-26.12 525.55-27.01 526.78-27.91 528.26-28.39 529.74-28.88 531.37-28.88L531.37-28.88Q534.6-28.88 537.14-27.73 539.67-26.59 541.43-24.6 543.19-22.61 544.12-19.92 545.05-17.24 545.05-14.16ZM536.67-14.16L536.67-14.16Q536.67-15.23 536.56-16.44 536.45-17.65 536.18-18.85 535.91-20.04 535.44-21.14 534.96-22.24 534.23-23.08 533.5-23.93 532.46-24.43 531.42-24.93 530.06-24.93L530.06-24.93Q528.64-24.93 527.6-24.44 526.56-23.95 525.82-23.11 525.07-22.27 524.6-21.18 524.12-20.09 523.85-18.9 523.59-17.7 523.48-16.48 523.37-15.26 523.37-14.16L523.37-14.16Q523.37-13.18 523.51-12 523.66-10.82 523.98-9.62 524.29-8.42 524.81-7.3 525.32-6.18 526.06-5.3 526.81-4.42 527.8-3.89 528.79-3.37 530.06-3.37L530.06-3.37Q531.45-3.37 532.47-3.87 533.5-4.37 534.23-5.21 534.96-6.05 535.44-7.15 535.91-8.25 536.18-9.45 536.45-10.64 536.56-11.87 536.67-13.09 536.67-14.16ZM557.13-13.38L557.13-13.38Q558.64-13.04 560.16-12.84 561.67-12.65 563.21-12.65L563.21-12.65Q564.82-12.65 566.2-12.95 567.58-13.26 568.59-13.98 569.6-14.7 570.19-15.89 570.78-17.09 570.78-18.87L570.78-18.87Q570.78-20.31 570.38-21.51 569.99-22.71 569.22-23.56 568.46-24.41 567.33-24.89 566.21-25.37 564.72-25.37L564.72-25.37Q563.33-25.37 562.22-24.85 561.11-24.34 560.26-23.47 559.42-22.61 558.82-21.46 558.23-20.31 557.84-19.07 557.45-17.82 557.27-16.55 557.1-15.28 557.1-14.16L557.1-14.16Q557.1-13.96 557.1-13.77 557.1-13.57 557.13-13.38ZM577.46-18.95L577.46-18.95Q577.46-17.21 576.9-15.86 576.34-14.5 575.38-13.48 574.41-12.45 573.14-11.74 571.87-11.04 570.43-10.58 568.99-10.13 567.47-9.94 565.94-9.74 564.5-9.74L564.5-9.74Q562.67-9.74 560.89-10 559.11-10.25 557.37-10.82L557.37-10.82Q557.64-9.2 558.23-7.75 558.81-6.3 559.79-5.21 560.77-4.13 562.19-3.49 563.62-2.86 565.58-2.86L565.58-2.86Q566.87-2.86 568.04-3.25 569.21-3.64 570.19-4.35 571.17-5.05 571.91-6.03 572.66-7.01 573.12-8.2L573.12-8.2 576.68-6.88Q575.88-4.96 574.47-3.55 573.07-2.15 571.3-1.23 569.53-0.32 567.54 0.12 565.55 0.56 563.6 0.56L563.6 0.56Q560.37 0.56 557.64-0.52 554.91-1.61 552.93-3.56 550.95-5.52 549.83-8.23 548.7-10.94 548.7-14.16L548.7-14.16Q548.7-17.38 549.83-20.09 550.95-22.8 552.93-24.76 554.91-26.71 557.64-27.8 560.37-28.88 563.6-28.88L563.6-28.88Q565.16-28.88 566.8-28.66 568.43-28.44 569.97-27.97 571.51-27.49 572.87-26.73 574.24-25.98 575.26-24.87 576.27-23.75 576.87-22.29 577.46-20.83 577.46-18.95ZM606.59-25.71L606.59-25.71 601.95-18.02Q601.66-18.99 601.19-20.21 600.73-21.44 600.05-22.5 599.36-23.56 598.41-24.28 597.46-25 596.21-25L596.21-25Q595.06-25 594.22-24.41 593.38-23.83 592.79-22.89 592.21-21.95 591.83-20.76 591.45-19.58 591.24-18.37 591.04-17.16 590.96-16.05 590.89-14.94 590.89-14.14L590.89-14.14 590.89 0 582.61 0 582.61-28.2 585.79-28.2 589.13-21.63Q589.82-23.22 590.69-24.55 591.57-25.88 592.72-26.84 593.87-27.81 595.32-28.34 596.77-28.88 598.6-28.88L598.6-28.88Q599.56-28.88 600.73-28.72 601.9-28.56 603.02-28.19 604.15-27.81 605.1-27.2 606.05-26.59 606.59-25.71ZM620.65-24.93L620.65 0 612.37 0 612.37-24.93 607.24-24.93 607.24-28.2 612.37-28.2 612.37-38.57 620.65-38.57 620.65-28.2 629.19-28.2 629.19-24.93 620.65-24.93ZM641.69-35.01L641.69-35.01Q641.69-34.08 641.34-33.25 640.98-32.42 640.37-31.81 639.76-31.2 638.93-30.85 638.1-30.49 637.17-30.49L637.17-30.49Q636.25-30.49 635.43-30.85 634.61-31.2 634-31.81 633.39-32.42 633.04-33.25 632.68-34.08 632.68-35.01L632.68-35.01Q632.68-35.94 633.04-36.76 633.39-37.57 634-38.18 634.61-38.79 635.43-39.15 636.25-39.5 637.17-39.5L637.17-39.5Q638.1-39.5 638.93-39.15 639.76-38.79 640.37-38.18 640.98-37.57 641.34-36.76 641.69-35.94 641.69-35.01ZM641.32-28.17L641.32 0 633.05 0 633.05-28.17 641.32-28.17ZM672.5-9.01L672.5-9.01Q672.5-7.15 671.96-5.71 671.42-4.27 670.5-3.21 669.57-2.15 668.3-1.43 667.03-0.71 665.58-0.27 664.12 0.17 662.54 0.37 660.95 0.56 659.39 0.56L659.39 0.56Q657.29 0.56 655.68 0.29 654.07 0.02 652.6-0.57 651.14-1.17 649.68-2.12 648.23-3.08 646.45-4.44L646.45-4.44 651.26-8.37Q651.92-7.13 653-6.12 654.09-5.1 655.26-4.37 656.43-3.64 657.53-3.25 658.63-2.86 659.31-2.86L659.31-2.86Q659.88-2.86 660.58-2.89 661.29-2.93 662.02-3.04 662.76-3.15 663.47-3.37 664.17-3.59 664.72-3.97 665.27-4.35 665.6-4.92 665.93-5.49 665.93-6.3L665.93-6.3Q665.93-7.13 665.5-7.75 665.08-8.37 664.39-8.84 663.71-9.3 662.83-9.62 661.95-9.94 661.06-10.18 660.17-10.42 659.34-10.61 658.51-10.79 657.9-10.96L657.9-10.96Q656.78-11.28 655.53-11.61 654.29-11.94 653.06-12.37 651.84-12.79 650.73-13.38 649.62-13.96 648.78-14.78 647.94-15.6 647.44-16.71 646.94-17.82 646.94-19.31L646.94-19.31Q646.94-22.05 648.02-23.89 649.11-25.73 650.89-26.84 652.67-27.95 654.94-28.42 657.22-28.88 659.56-28.88L659.56-28.88Q661.17-28.88 662.95-28.55 664.73-28.22 666.42-27.58 668.1-26.93 669.57-26 671.03-25.07 672.01-23.88L672.01-23.88 667.2-19.92Q666.66-21.39 665.8-22.44 664.93-23.49 663.92-24.16 662.9-24.83 661.84-25.15 660.78-25.46 659.88-25.46L659.88-25.46Q659-25.46 657.9-25.39 656.8-25.32 655.84-24.98 654.87-24.63 654.2-23.94 653.53-23.24 653.53-22.02L653.53-22.02Q653.53-21.14 653.93-20.52 654.33-19.9 654.99-19.45 655.65-18.99 656.5-18.69 657.34-18.38 658.22-18.15 659.1-17.92 659.93-17.75 660.76-17.58 661.41-17.38L661.41-17.38Q662.54-17.07 663.79-16.74 665.05-16.41 666.27-15.98 667.49-15.55 668.63-14.98 669.76-14.4 670.62-13.57 671.47-12.74 671.99-11.63 672.5-10.52 672.5-9.01ZM684.48-13.38L684.48-13.38Q686-13.04 687.51-12.84 689.02-12.65 690.56-12.65L690.56-12.65Q692.17-12.65 693.55-12.95 694.93-13.26 695.95-13.98 696.96-14.7 697.54-15.89 698.13-17.09 698.13-18.87L698.13-18.87Q698.13-20.31 697.74-21.51 697.35-22.71 696.58-23.56 695.81-24.41 694.69-24.89 693.57-25.37 692.08-25.37L692.08-25.37Q690.68-25.37 689.57-24.85 688.46-24.34 687.62-23.47 686.78-22.61 686.18-21.46 685.58-20.31 685.19-19.07 684.8-17.82 684.63-16.55 684.46-15.28 684.46-14.16L684.46-14.16Q684.46-13.96 684.46-13.77 684.46-13.57 684.48-13.38ZM704.82-18.95L704.82-18.95Q704.82-17.21 704.26-15.86 703.7-14.5 702.73-13.48 701.77-12.45 700.5-11.74 699.23-11.04 697.79-10.58 696.35-10.13 694.82-9.94 693.3-9.74 691.86-9.74L691.86-9.74Q690.03-9.74 688.24-10 686.46-10.25 684.73-10.82L684.73-10.82Q685-9.2 685.58-7.75 686.17-6.3 687.14-5.21 688.12-4.13 689.55-3.49 690.98-2.86 692.93-2.86L692.93-2.86Q694.22-2.86 695.4-3.25 696.57-3.64 697.54-4.35 698.52-5.05 699.27-6.03 700.01-7.01 700.47-8.2L700.47-8.2 704.04-6.88Q703.23-4.96 701.83-3.55 700.43-2.15 698.66-1.23 696.89-0.32 694.9 0.12 692.91 0.56 690.95 0.56L690.95 0.56Q687.73 0.56 685-0.52 682.26-1.61 680.28-3.56 678.31-5.52 677.18-8.23 676.06-10.94 676.06-14.16L676.06-14.16Q676.06-17.38 677.18-20.09 678.31-22.8 680.28-24.76 682.26-26.71 685-27.8 687.73-28.88 690.95-28.88L690.95-28.88Q692.52-28.88 694.15-28.66 695.79-28.44 697.33-27.97 698.86-27.49 700.23-26.73 701.6-25.98 702.61-24.87 703.62-23.75 704.22-22.29 704.82-20.83 704.82-18.95Z" opacity="1" transform="matrix(1,0,0,1,0,0)" fill="#1c4b82" class="slogan-text-1" data-fill-palette-color="secondary" id="text-1"></path></svg></g></svg></g></svg></g></svg></g><g transform="matrix(1,0,0,1,404.15908754360197,0)"><svg viewBox="0 0 86.44106091217266 86.41801975121291" height="86.41801975121291" width="86.44106091217266"><g><svg xmlns="http://www.w3.org/2000/svg" xmlns:xlink="http://www.w3.org/1999/xlink" version="1.1" x="0" y="0" viewBox="0 -0.0002733707189948407 81.95211798856197 81.93027337071901" style="enable-background:new 0 0 81.953 81.929;" xml:space="preserve" id="icon-0" width="86.44106091217266" height="86.41801975121291" class="icon-icon-0" data-fill-palette-color="accent"><g fill="#1c4b82" data-fill-palette-color="accent"><g fill="#1c4b82" data-fill-palette-color="accent"><rect x="14.458" y="61.045" width="30.523" height="1.607" fill="#1c4b82" data-fill-palette-color="accent"></rect><rect x="14.458" y="56.227" width="36.949" height="1.605" fill="#1c4b82" data-fill-palette-color="accent"></rect><path d="M81.482 5.292L76.663 0.47A1.606 1.606 0 0 0 74.391 0.471L69.158 5.709C68.058 5.373 66.819 5.623 65.951 6.494 65.924 6.519 65.904 6.553 65.878 6.58L56.399 16.064H6.425A6.426 6.426 0 0 0 0 22.49V75.504A6.426 6.426 0 0 0 6.425 81.93H59.438A6.427 6.427 0 0 0 65.863 75.504V25.609L75.379 16.086C75.406 16.061 75.439 16.041 75.465 16.016A3.21 3.21 0 0 0 76.252 12.803L81.482 7.569V7.566A1.61 1.61 0 0 0 81.482 5.292M62.651 75.504A3.214 3.214 0 0 1 59.438 78.717H6.425A3.21 3.21 0 0 1 3.213 75.504V22.49A3.213 3.213 0 0 1 6.425 19.277H53.187L49.977 22.49H6.425V75.504H59.438V32.039L62.652 28.824zM34.23 38.25L34.247 38.266A1.6 1.6 0 0 0 33.841 38.905L33.835 38.903 29.086 50.782 29.051 50.874 29.016 50.96 29.022 50.962A1.6 1.6 0 0 0 28.943 51.407H14.458V53.014H30.209A1.6 1.6 0 0 1 30.547 53.051C30.716 53.051 30.877 53.02 31.029 52.971L31.03 52.977 31.052 52.967 31.073 52.959 43.079 48.154 43.076 48.146C43.324 48.066 43.533 47.917 43.715 47.74L43.731 47.756 57.832 33.646V73.896H8.032V24.097H48.374zM35.95 42.242L39.741 46.035 33.423 48.564zM28.971 51.75A1.7 1.7 0 0 1 28.94 51.441L28.941 51.429 28.94 51.441C28.94 51.547 28.953 51.648 28.971 51.75M29.455 52.615C29.492 52.65 29.532 52.681 29.571 52.713A2 2 0 0 1 29.455 52.615M42.596 44.348L37.638 39.387 39.55 37.475 44.481 42.405 45.618 41.27 40.686 36.338 65.958 11.047 70.915 16.006zM74.254 10.253L71.705 7.704 75.527 3.882 78.074 6.429z" fill="#1c4b82" data-fill-palette-color="accent"></path></g></g></svg></g></svg></g></svg></g><defs></defs></svg><rect width="395.52" height="69.66988346739342" fill="none" stroke="none" visibility="hidden"></rect></g></svg></g></svg>